# xmcd
#
# Track frame offsets:
#	150
#	12590
#	26205
#	39645
#	53645
#	65080
#	77570
#	89825
#	105223
#	118318
#	134718
#	149935
#	162483
#	175193
#	185685
#	195030
#	212525
#	224955
#	237650
#	250145
#	265678
#	277843
#	288178
#	300170
#	312170
#
# Disc length: 4331 seconds
#
# Revision: 0
# Processed by: cddbd v1.5.1PL0 Copyright (c) Steve Scherf et al.
# Submitted via: audiograbber 1.83.01
#
DISCID=7d10e919
DTITLE=Hank Snow - The Singing Ranger, Vol. 4 (8 of 9)
DYEAR=1900
DGENRE=
TTITLE0=Hank Snow and Willie Nelson - I'm Movin' On
TTITLE1=Hank Snow and Willie Nelson - Send Me the Pillow That You Dream On
TTITLE2=Hank Snow and Willie Nelson - I Don't Hurt Anymore
TTITLE3=Hank Snow and Willie Nelson - (Now and Then There's) A Fool Such as I
TTITLE4=Hank Snow and Willie Nelson - It Makes No Difference Now
TTITLE5=Hank Snow - Spanish Eyes [Instrumental]
TTITLE6=Hank Snow - Sweetheart of Sigma Chi [Instrumental]
TTITLE7=Hank Snow - Over the Rainbow [Instrumental]
TTITLE8=Hank Snow - Tradewinds Over Mamala Bay [Instrumental]
TTITLE9=Hank Snow - Indian Love Call [Instrumental]
TTITLE10=Hank Snow - You Belong to Me [Instrumental]
TTITLE11=Hank Snow - Wabash Blues [Instrumental]
TTITLE12=Hank Snow - King's Serenade [Instrumental]
TTITLE13=Hank Snow - Make the World Go Away [Instrumental]
TTITLE14=Hank Snow - Oh Wonderful World [Instrumental]
TTITLE15=Hank Snow - My Isle of Golden Dreams [Instrumental]
TTITLE16=Hank Snow - Tuck Away My Lonesome Blues [Instrumental]
TTITLE17=Hank Snow - Tammy [Instrumental]
TTITLE18=Hank Snow - Beautiful Ohio [Instrumental]
TTITLE19=Hank Snow - Song of India [Instrumental]
TTITLE20=Hank Snow - Song of the Islands [Instrumental]
TTITLE21=Hank Snow - Sunrise Serenade [Instrumental]
TTITLE22=Hank Snow - Misty Dawn [Instrumental]
TTITLE23=Hank Snow - Vaya Can Dios [Instrumental]
TTITLE24=Hank Snow - I'll Remember You, Love, in My Prayers [Instrumental]
EXTD=
EXTT0=
EXTT1=
EXTT2=
EXTT3=
EXTT4=
EXTT5=
EXTT6=
EXTT7=
EXTT8=
EXTT9=
EXTT10=
EXTT11=
EXTT12=
EXTT13=
EXTT14=
EXTT15=
EXTT16=
EXTT17=
EXTT18=
EXTT19=
EXTT20=
EXTT21=
EXTT22=
EXTT23=
EXTT24=
PLAYORDER=
